<?xml version="1.0" encoding="utf-8"?>
<!-- Generator: Adobe Illustrator 26.0.0, SVG Export Plug-In . SVG Version: 6.00 Build 0)  -->
<svg version="1.1" id="Layer_1" xmlns="http://www.w3.org/2000/svg" xmlns:xlink="http://www.w3.org/1999/xlink" x="0px" y="0px"
	 viewBox="0 0 409.6 409.6" style="enable-background:new 0 0 409.6 409.6;" xml:space="preserve">
<style type="text/css">
	.st0{fill:#008CFF;}
	.st1{fill:#FF9100;}
</style>
<path class="st0" d="M0,356.1c1.9-4.9,5.7-6.5,10.8-6.4c5.8,0.2,11.7,0,18.5,0C14,335.1,6.1,318,7,297.5s9.8-37.3,26.3-49.7
	c26-19.6,62.3-16.6,85.4,6.2c21.5,21.2,29.8,64.6-3.1,95.8h4.7c23.7,0,47.3,0,71,0c1.9,0,3.7,0.1,5.5,0.5c3.5,0.9,5.9,4.1,5.8,7.7
	c-0.2,3.7-2.9,6.9-6.6,7.5c-1.7,0.2-3.4,0.3-5.2,0.2H16.3c0,5.4-0.5,10.6,0.1,15.6c0.9,6.5,6.5,10.9,13.1,11.4
	c1.3,0.1,2.7,0.1,4,0.1h316.6c-0.9-8.9-1.8-17.8-2.8-27.1h-3.8c-26.1,0-52.2,0-78.2,0c-3.7,0-6.9-0.7-8.9-4.1
	c-2.1-3.7-0.9-8.4,2.8-10.5c0.4-0.2,0.8-0.4,1.3-0.6c1.9-0.5,3.9-0.8,5.9-0.7c28.9,0,57.7,0,86.6,0c8.6,0,11.1,2.6,11.1,11.3
	c0,5.7-0.1,11.5,0,17.2c0.2,8.3,6.3,14.6,14.3,14.6s14.1-6.2,14.4-14.6c0-0.8,0-1.6,0-2.4c0-99.4,0-198.8,0-298.2
	c0-10.6-3.7-19-13.4-23.9c-2.3-1.3-4.9-2.1-7.6-2.3c-13.5-0.2-27.1-0.1-41.3-0.1c0,3.9,0.2,7.7,0,11.5c-0.9,13.1-12.3,22.9-25.4,22
	c-11.3-0.8-20.5-9.5-21.9-20.8c-0.5-4.1-0.5-8.2-0.7-12.6h-134c0,3.8,0.2,7.6,0,11.5c-1,13.1-12.4,22.9-25.4,21.9
	c-11.3-0.8-20.4-9.5-21.8-20.7c-0.5-4.2-0.5-8.4-0.7-12.8c-12.2,0-24.3-0.6-36.4,0.2S43.6,62.1,43.2,74.1c-0.3,8.9,0,17.8,0,27.2
	h283.4c1.5,0,2.9-0.1,4.4,0.1c4.7,0.5,7.8,3.7,7.7,8c0,4.2-3,7.3-7.5,7.8c-1.5,0.1-2.9,0.1-4.4,0.1H43v5.1c0,28.3,0,56.7,0,85
	c0,1.9-0.1,3.7-0.5,5.5c-0.7,3.7-4.2,6.2-7.9,5.9c-3.7-0.1-6.8-2.9-7.3-6.7c-0.2-1.3-0.2-2.7-0.2-4c0-43.6,0-87.3,0-130.9
	C27.1,52,44.2,35,69.5,35h31.6c0-4.3-0.3-8.5,0.1-12.7c1-11.1,7.1-18.2,17.7-21.6c0.6-0.2,1.2-0.5,1.7-0.8h8
	c18.3,4.9,21.7,18.6,20,34.9h134.3c-0.2-2.4-0.1-4.9,0.1-7.3c0.8-4.9,1.2-10.1,3-14.6c2.9-7.4,9.7-10.5,16.7-13h8
	c18.3,4.9,21.7,18.6,20,35.1c13.3,0,25.8-0.1,38.3,0c22,0.1,39.8,17.9,39.8,39.9c0.1,100.7,0.1,201.4-0.1,302.1
	c0,4.9-1.1,9.8-3.1,14.2c-5.7,12.2-16.1,17.4-29.4,17.4H128c-31.8,0-63.6,0-95.4,0c-8.3,0-15.7-2.1-22.1-7.6
	c-5.9-5-8.6-11.6-10.5-18.8L0,356.1z M121.7,300.1c-0.1-27.3-22.2-49.4-49.5-49.3S22.7,273,22.8,300.3c0.1,27.3,22.2,49.4,49.5,49.3
	C99.6,349.6,121.7,327.4,121.7,300.1L121.7,300.1z M132.8,42.7c0-5.9,0.1-11.7,0-17.6c-0.1-5.6-3.2-9.1-7.9-9.1
	c-4.5,0-7.9,3.4-8,8.7c-0.2,11.8-0.2,23.7,0,35.5c0.1,5.6,3.5,8.8,8.4,8.6c4.6-0.2,7.4-3.5,7.5-9C132.8,54.1,132.8,48.4,132.8,42.7
	L132.8,42.7z M314.8,42.9c0-6,0.1-12,0-18c-0.1-5.4-3.1-8.8-7.7-8.9s-8.1,3.3-8.2,8.5c-0.2,12-0.2,23.9,0,35.9
	c0.1,5.4,3.5,8.5,8.1,8.5s7.6-3.4,7.7-8.8C314.9,54.4,314.8,48.7,314.8,42.9L314.8,42.9z"/>
<path class="st1" d="M285.3,188.7c1.2,16.1-11.8,30.4-28.7,31.6c-15.5,1.1-30.3-11.7-31.5-27.1c-1.3-17.9,10.7-32,28.4-33.3
	C269.8,158.5,284.1,171.4,285.3,188.7z M240.9,189.9c0,7.9,6.3,14.3,14.2,14.3c7.9,0,14.3-6.3,14.3-14.2s-6.3-14.3-14.2-14.3
	c-0.1,0-0.1,0-0.2,0C247.3,175.7,241,182.1,240.9,189.9L240.9,189.9z"/>
<path class="st1" d="M224.9,273c0.3-16.7,14-30,30.7-29.8c16.3,0.3,29.4,13.4,29.8,29.6c0.2,16.6-13.8,30.6-30.4,30.5
	C238.4,303.2,225,289.7,224.9,273z M269.5,273.1c0-7.9-6.4-14.3-14.3-14.3c-7.9,0-14.3,6.4-14.3,14.3c0,7.8,6.2,14.1,14,14.3
	C262.9,287.5,269.4,281.1,269.5,273.1C269.5,273.2,269.5,273.1,269.5,273.1z"/>
<path class="st1" d="M75.9,190c0.1-16.6,13.6-30.1,30.2-30.3c16.4-0.1,30.2,13.6,30.4,30.1s-13.9,30.6-30.5,30.5
	C89.4,220.1,76,206.6,75.9,190z M91.9,190c0,7.9,6.4,14.4,14.3,14.4c7.9,0,14.4-6.4,14.4-14.3c0-7.9-6.4-14.4-14.3-14.4
	c-0.1,0-0.2,0-0.2,0C98.2,175.8,91.9,182.1,91.9,190L91.9,190z"/>
<path class="st1" d="M329.7,159.7c16.6,0.2,30.1,13.6,30.3,30.3c0.1,16.6-14,30.6-30.6,30.4c-16.7-0.1-30.2-13.7-30.2-30.5
	C299.4,173.1,313,159.6,329.7,159.7L329.7,159.7z M329.6,204.4c7.9,0,14.4-6.4,14.4-14.3s-6.4-14.4-14.3-14.4
	c-7.9,0-14.3,6.2-14.4,14.1C315.3,197.7,321.7,204.2,329.6,204.4z"/>
<path class="st1" d="M329.1,303.4c-16.8-0.5-30.3-14.6-29.7-31.2s14.8-30.1,31.1-29.4c16.6,0.7,29.8,14.4,29.5,30.6
	C359.7,290.1,345.5,303.9,329.1,303.4z M315.4,272.9c-0.1,7.9,6.2,14.4,14.1,14.5s14.4-6.2,14.5-14.1c0.1-7.9-6.2-14.4-14.1-14.5
	c-0.1,0-0.2,0-0.2,0C321.9,258.8,315.5,265,315.4,272.9z"/>
<path class="st1" d="M210.9,189.8c0,16.7-13.3,30.3-30,30.5c-16.5,0.2-30.6-13.8-30.6-30.3c0.3-16.7,14-30.1,30.7-29.8
	C197.3,160.4,210.5,173.5,210.9,189.8L210.9,189.8z M194.9,189.9c0-7.8-6.3-14.2-14.1-14.3c-7.9-0.3-14.6,5.9-14.8,13.9
	c-0.3,7.9,5.9,14.6,13.9,14.8c0.2,0,0.5,0,0.7,0c7.9,0.1,14.3-6.3,14.4-14.2C194.9,190.1,194.9,190,194.9,189.9L194.9,189.9z"/>
<path class="st1" d="M210.9,273.1c-0.3,16.7-14.1,30.1-30.8,29.8c-16.3-0.3-29.5-13.4-29.8-29.7c-0.2-16.5,14-30.6,30.5-30.5
	C197.4,243,210.8,256.5,210.9,273.1z M194.9,273.2c0.1-7.9-6.2-14.4-14.1-14.5c-0.1,0-0.2,0-0.2,0c-7.9-0.2-14.5,6.1-14.7,14
	s6.1,14.5,14,14.7c0.2,0,0.5,0,0.7,0C188.5,287.4,194.9,281,194.9,273.2L194.9,273.2z"/>
<path class="st0" d="M376.1,109.6c-0.1,4.3-3.7,7.8-8,7.8c-4.4-0.1-7.8-3.7-7.8-8.1c0.1-4.4,3.7-7.8,8.1-7.8
	C372.7,101.6,376.1,105.2,376.1,109.6z"/>
<path class="st0" d="M225,357.8c0-4.3,3.4-7.9,7.8-8c4.3,0.1,7.8,3.6,7.9,7.9c0,4.3-3.5,7.8-7.8,7.9
	C228.5,365.7,225,362.1,225,357.8z"/>
<path class="st1" d="M63.4,307.3c4.1-4.3,7.7-8.2,11.4-11.9c4.8-4.8,9.5-9.7,14.4-14.3c3.6-3.4,8.3-3.3,11.4-0.2s3.3,7.8-0.3,11.4
	c-10.2,10.4-20.6,20.8-31,31c-3.8,3.7-8.1,3.6-12-0.1c-4.6-4.4-9.1-8.9-13.5-13.5c-3.7-3.8-3.7-8.5-0.5-11.7s7.9-3.2,11.7,0.5
	C57.8,301.1,60.3,304,63.4,307.3z"/>
</svg>
