<?xml version="1.0" encoding="utf-8"?>
<!-- Generator: Adobe Illustrator 26.0.0, SVG Export Plug-In . SVG Version: 6.00 Build 0)  -->
<svg version="1.1" id="Layer_1" xmlns="http://www.w3.org/2000/svg" xmlns:xlink="http://www.w3.org/1999/xlink" x="0px" y="0px"
	 viewBox="0 0 512 512" style="enable-background:new 0 0 512 512;" xml:space="preserve">
<style type="text/css">
	.st0{fill:#008CFF;}
	.st1{fill:#FF9100;}
	.st2{fill:#FF0000;}
</style>
<path class="st0" d="M376.3,512H28.9c-0.2-0.2-0.4-0.6-0.7-0.7C9,505.2,1,494.3,1,474.2C1,328.7,1,183.1,1,37.6
	C1,15,15.1,0.9,37.8,0.9h329.8c22.6,0,36.6,14.1,36.7,36.8c0,46.2,0,92.5,0,138.7v5.1l1.5,0.7c1-1.5,2.1-3,3.3-4.4
	c13.8-13.9,27.5-28,41.7-41.5c20-19,52.2-9.9,59.9,16.6c0.4,1.2,0.9,2.4,1.3,3.6v12c-2.7,11.5-10.3,19.7-18.4,27.7
	c-28.6,28.3-56.9,56.9-85.5,85.3c-2.7,2.4-4.1,5.9-4,9.5c0.1,61.7,0.2,123.4,0.1,185.1c0,17.7-9.3,30-26.3,34.9
	C377.3,511.3,376.8,511.6,376.3,512z M61.3,60.9v391.2h5.8c31.3,0,62.5,0,93.8,0c7.2,0,11.8,4,11.8,10s-4.6,9.9-11.9,9.9
	c-35.9,0-71.9,0-107.8,0c-8.5,0-12.1-3.6-12.1-12.2c0-135.6,0-271.2,0-406.8c0-8.6,3.6-12.2,12.1-12.2c19.6,0,39.3,0,58.9,0h5.4v-20
	H38.1C26,20.8,21,25.9,21,38.1c0,145.4,0,290.8,0,436.2C21,487,25.9,492,38.4,492h328.4c12.5,0,17.5-5,17.5-17.5V306.2
	c-5.4,2.4-9.9,4.8-14.7,6.5c-4,1.4-5.4,3.6-5.3,8c0.2,46.1,0.1,92.2,0.1,138.3c0,9.9-3.3,13.2-13.2,13.2H245.9c-1.5,0.1-3,0-4.5-0.1
	c-5.5-0.6-9.4-5.4-8.9-10.9c0.5-4.7,4.2-8.4,8.9-8.9c1.7-0.1,3.3-0.2,5-0.1H344V324.6c-0.4,0-0.9,0.1-1.3,0.2
	c-8.7,3.8-17.3,7.7-26,11.5c-6.4,2.8-10.4,2.6-13.8-1.1c-3.9-4.2-3-8.7-0.9-13.4c8.2-18.2,16.5-36.3,24.2-54.7
	c3.4-8.1,7.7-15.4,14.6-21c2.7-2.2,3.6-4.7,3.5-8.2c-0.1-57.2-0.1-114.5-0.1-171.7v-5.1h-56.6c-0.1,1.3-0.2,2.2-0.3,3.2
	C286,80,273.1,92.5,257.2,92.6c-36.4,0.2-72.9,0.2-109.3,0c-14-0.1-25.9-9.9-29.3-23.5c-0.7-2.7-1-5.4-1.5-8.2L61.3,60.9z M138,21
	c-0.1,0.6-0.2,1.3-0.3,2c0,12.5-0.1,24.9,0,37.4c0,8,4.4,12.3,12.4,12.4c35.1,0,70.2,0,105.2,0c7.9,0,12.2-4.5,12.3-12.5
	c0.1-12,0-23.9,0-35.9c-0.1-1.1-0.2-2.2-0.4-3.3L138,21z M364.3,221.3l1.2,0.5c5.3-5.5,10.8-10.8,15.9-16.5c1.7-1.9,2.6-4.3,2.8-6.9
	c0.1-53.7,0.2-107.4,0.1-161.1c0-11.1-5.3-16.5-16.5-16.5c-25.1,0-50.2,0-75.3,0c-1.6,0-3.1,0.1-4.5,0.2v19.8H351
	c10.2,0,13.3,3.2,13.3,13.5L364.3,221.3L364.3,221.3z M444.6,171.7c-30.1,30.1-59.9,59.9-88.9,89l21.7,21.7l88.9-88.9L444.6,171.7z
	 M481.7,179.7c6.6-5.8,12.5-11.6,9.7-21.3c-1.9-6.5-6.2-10.5-12.8-11.7c-9.2-1.6-14.8,3.9-19.6,10L481.7,179.7z M358.9,295.7
	l-16-16.5l-13.1,29.3L358.9,295.7z"/>
<path class="st1" d="M130.2,204.5c-9.8,0-19.6,0-29.4,0c-8.2,0-12-3.7-12-11.8c0-20.1,0-40.2,0-60.3c0-8.1,3.8-11.7,12-11.8
	c19.9,0,39.9,0,59.8,0c8.5,0,12,3.6,12,12.2c0,19.8,0,39.6,0,59.3c0,8.8-3.6,12.2-12.5,12.3C150.2,204.6,140.2,204.5,130.2,204.5z
	 M152.6,141h-43.5v43.2h43.5V141z"/>
<path class="st1" d="M88.8,272.4c0-10,0-19.9,0-29.9c0-8.3,3.6-12,11.8-12c20.1,0,40.2,0,60.3,0c8.1,0,11.8,3.7,11.8,12
	c0,19.9,0,39.9,0,59.8c0,8.5-3.7,12-12.2,12c-19.8,0-39.5,0-59.3,0c-8.8,0-12.2-3.6-12.3-12.5C88.8,292,88.8,282.2,88.8,272.4z
	 M152.5,250.8h-43.3v43.3h43.3V250.8z"/>
<path class="st1" d="M130.6,424.2c-10.1,0-20.3,0-30.4,0c-7.5-0.1-11.3-3.9-11.3-11.5c0-20.3,0-40.5,0-60.8
	c0-7.8,3.8-11.5,11.7-11.6c20.1,0,40.2,0,60.3,0c8.1,0,11.8,3.7,11.8,11.9c0,19.9,0,39.9,0,59.8c0,8.5-3.7,12-12.2,12.1
	C150.5,424.2,140.5,424.2,130.6,424.2z M109.1,360.5v43.3h43.3v-43.3L109.1,360.5z"/>
<path class="st2" d="M239.1,382.3c-5.6-5.4-10.3-9.8-14.9-14.4c-5-5-5.4-11.2-1.1-15.4s10.1-3.8,15,1.2c4.7,4.7,9.1,9.6,14.5,15.4
	c5.2-5.6,9.5-10.4,14-15c5.2-5.3,11-5.8,15.4-1.6c4.5,4.4,4.1,10.3-1.3,15.8c-4.5,4.5-9.1,8.8-14.1,13.7c5,5,9.9,9.4,14.2,14.4
	c2.1,2.5,4.3,6.2,4,9c-0.4,3-3.2,6.5-5.9,8.3c-3.4,2.2-7.5,1.2-10.5-1.8c-5-5-9.9-10.3-15.4-16.1c-5.6,5.7-10.5,10.8-15.6,15.7
	c-3.7,3.6-8.4,4.1-12.3,1.7c-3.9-2.2-5.8-6.9-4.3-11.2c0.8-2.1,2.1-4.1,3.8-5.7C229,391.8,233.7,387.4,239.1,382.3z"/>
<path class="st1" d="M241,171.4c12.2-12.3,23.8-24,35.4-35.6c6.5-6.5,12.1-7.4,16.8-2.8s4,10.3-2.5,16.8c-13.5,13.5-27,27-40.5,40.5
	c-6.4,6.4-11.5,6.4-17.9,0s-12.7-12.6-19-19c-5.1-5.2-5.6-11.1-1.3-15.4s10.1-3.9,15.4,1.2c2.3,2.2,4.5,4.4,6.7,6.7
	S238.3,168.5,241,171.4z"/>
<path class="st1" d="M240.9,281.4c12.3-12.4,23.9-24,35.5-35.7c1.2-1.3,2.6-2.6,4-3.7c3.7-2.8,8.9-2.6,12.4,0.5
	c3.7,3.2,4.5,8.5,1.9,12.6c-0.9,1.4-2,2.6-3.2,3.8c-13.7,13.8-27.5,27.5-41.2,41.2c-6.5,6.5-11.5,6.5-17.9,0.1s-12.7-12.6-19-19
	c-5.2-5.2-5.6-11.1-1.4-15.4s10.2-4,15.4,1.2C231.8,271.5,236.1,276.3,240.9,281.4z"/>
<path class="st0" d="M202.8,452.1c5.5,0.1,9.9,4.6,9.8,10.1c-0.1,5.5-4.6,9.9-10.1,9.8c-5.5-0.1-9.9-4.6-9.8-10.1c0-0.1,0-0.2,0-0.3
	C192.9,456.3,197.4,452.1,202.8,452.1z"/>
</svg>
