<?xml version="1.0" encoding="utf-8"?>
<!-- Generator: Adobe Illustrator 26.0.0, SVG Export Plug-In . SVG Version: 6.00 Build 0)  -->
<svg version="1.1" id="Layer_1" xmlns="http://www.w3.org/2000/svg" xmlns:xlink="http://www.w3.org/1999/xlink" x="0px" y="0px"
	 viewBox="0 0 409.6 409.6" style="enable-background:new 0 0 409.6 409.6;" xml:space="preserve">
<style type="text/css">
	.st0{fill:#0098FF;}
</style>
<path class="st0" d="M0,376.1c0.5-6.7,1-13.5,1.5-20.2c0.4-4.7,3.7-7.4,7.8-6.1c3.3,1,4.5,3.5,4.3,6.8c-0.4,7.7-0.8,15.4-1.3,23.1
	c-0.5,7.9,1.7,10.4,9.7,10.4c11.9,0,23.7,0,35.6,0h4.3v-60.7c0-6.3,2-9.3,6.2-9.2c4,0.1,6,3,6,9.1c0,18.6,0,37.2,0,55.9v4.7h260.5
	v-60.2c0-6.4,1.9-9.4,6.1-9.4s6.2,3,6.2,9.3c0,18.6,0,37.2,0,55.9v4.7h14.8c9.1,0,18.1,0.1,27.2,0c6.2-0.1,8.8-2.8,8.5-8.9
	c-1.2-21.2-2.2-42.5-3.7-63.7c-1.3-19-10.3-33.4-26.9-43c-0.6-0.3-1.2-0.7-1.7-1c-3.9-2.5-5-5.8-3-9c1.8-3,5.3-3.5,9.2-1.4
	c22.5,12.4,33.6,31.7,35,57c0.9,17,1.8,34,2.7,51c0.2,1.4,0.4,2.9,0.7,4.3v12c-4,11.7-12.7,15.2-24.5,15.2
	c-108.5-0.2-216.9-0.2-325.4-0.1c-12.9,0-25.8,0-38.8,0c-6.1,0-11.8-1.5-15.8-6.3c-2.1-2.6-3.4-5.8-5.1-8.8L0,376.1z"/>
<path class="st0" d="M135.6,348.1c-0.8-10.8-1.5-20.9-2.3-30.9c-0.7-8.8-1.5-17.5-2.1-26.2c-0.6-9.1-6.4-15.3-14.6-15.5
	c-8.4-0.2-14.4,5.5-15.2,14.6c-1.6,18.4-3,36.8-4.5,55.3c-0.1,0.8,0,1.5,0,2.7c2.3,0,4.3-0.1,6.2,0c3.4,0.3,5.4,2.3,5.6,5.7
	c0.4,3-1.7,5.7-4.7,6c-0.1,0-0.3,0-0.4,0c-3.6,0.4-7.2,0.4-10.8,0c-5.4-0.8-8.6-5.3-8.2-11.4c0.9-12.9,1.9-25.7,2.9-38.6
	c0.6-7.6,1.1-15.1,2-22.7c1.2-10.6,7.1-17.9,16.9-21.9c2.4-1,3.2-2.2,3.1-4.6c-0.2-3.3,0-6.5,0-10c-0.7,0-1.4,0.1-2.1,0.2
	c-19.9,7.1-40,13.8-59.7,21.5c-15.9,6.2-25.7,18.4-30.2,34.9c-0.3,1.2-0.6,2.3-0.9,3.5c-1.2,3.6-4.2,5.4-7.3,4.7
	c-3.1-0.6-5.1-3.7-4.5-6.8c0-0.2,0.1-0.4,0.2-0.6C6.6,302,8.3,296,11,290.6c8-15.8,20.9-26.2,37.6-32c19.2-6.7,38.4-13.5,57.6-20.4
	c1.4-0.5,3.2-1.8,3.4-3c3.3-21.4,15.8-34.4,37.1-40.3c-10.2-13-17.6-27.2-18.8-44.1c-0.8-0.2-1.5-0.5-2.2-0.6
	c-7.9-1.5-13.2-7.3-13.5-15.5c-0.2-6.5-0.1-13,0-19.6c0-1.6,0.2-3.4,1.1-4.6c2.6-3.4,1.9-7,1.7-10.7c-0.5-9.8-1.8-19.7-1.3-29.5
	c1.5-32.2,24.1-58.9,56.2-62.4c23.2-2.6,46.6-2.6,69.8,0c35.9,4.2,59.2,36.2,56.2,72.7c-0.5,6.1-0.9,12.2-1.2,18.3
	c-0.2,4-0.9,8.1,2,11.8c1.1,1.4,1,3.8,1,5.8c0.1,5,0,10.1,0,15.2c0,11.2-4.5,16.7-15.8,18.9c-1.3,16.6-8.3,31-19,44.2
	c1.3,0.5,2.2,0.8,3.2,1.1c18.7,5.6,30.1,17.8,33.5,37.1c0.6,3.2,1.8,4.7,4.9,5.7c6.1,1.9,12.1,4.1,18.1,6.3c4.6,1.7,6.3,4.5,5.1,8
	c-1.3,3.8-4.4,4.9-9.2,3.3c-5.8-2-11.5-4-17.7-6.2v46.7c5.8,3.7,11.8,6.4,16.5,10.6c10.1,9.3,11.7,24.5,4.9,36.7
	c-8.5,14.9-27.4,20.1-42.3,11.6c-9.1-5.1-14.9-14.5-15.6-24.9c-1-13.8,7.4-26.5,20.5-31c2.8-0.9,3.6-2.2,3.6-5
	c-0.1-15.2-0.1-30.3,0-45.5c0-2.9-0.8-4.2-3.6-5.1c-5.1-1.5-10-3.4-15.4-5.3c-0.7,1.5-1.3,2.8-1.9,4.1
	c-18.2,42.9-36.4,85.7-54.5,128.5c-0.4,0.9-0.7,1.7-1.1,2.6c-1.3,3-3.4,5.1-6.9,5.1s-5.6-2.2-6.9-5.2c-5.7-13.4-11.4-26.9-17.1-40.4
	l-38.4-90.7c-0.5-1.2-1.1-2.4-1.8-4c-6,2.1-11.9,4-17.6,6.3c-0.7,0.3-1.2,1.9-1.2,2.9c-0.1,4.3-0.2,8.5,0,12.8
	c0.2,1.4,1.1,2.6,2.4,3.2c11.9,4.4,18.2,12.8,19.2,25.4c1.5,18.8,3,37.7,4.5,56.5c0.8,9.7-3,13.9-12.7,13.9c-2,0.1-4,0-6-0.1
	c-3.2-0.2-5.6-3-5.4-6.1c0-0.1,0-0.1,0-0.2c0.3-3.4,2.3-5.3,5.7-5.6C131.3,348,133.1,348.1,135.6,348.1z M142.4,88.3
	c0,5,0,9.3,0,13.7c-0.1,1.7-0.2,3.4-0.5,5.1c-0.6,5.1-1.6,10.1-1.9,15.2c-0.3,6.1,0.2,12.2-0.1,18.4c-1.1,19.6,6.5,35.7,19.5,49.8
	c12.2,13.3,27.7,20,45.5,19.9c17.2-0.1,32.5-6.4,44.6-19.3c10.7-11.4,19.2-24.3,19.7-40.3c0.6-15.7,2.3-31.5-2.2-47
	c-0.7-2.3-1.4-2.9-3.6-1.8c-2.6,1.6-5.3,3-8.1,4.2c-14,5.7-28.6,5.6-43.3,3.5c-21.4-3.1-41.6-10.1-61.4-18.3
	C148,90.4,145.4,89.4,142.4,88.3z M127.3,107.7l1.7,0.3c0.5-2.2,1.2-4.4,1.3-6.7c0.2-7,0-14.1,0.1-21.2c0.1-6.4,3.9-8.8,9.8-6.3
	c0.7,0.3,1.4,0.7,2.2,1c25.5,11,51.2,21.2,79.2,23.7c12.4,1.1,24.5,0,35.4-6.8c1.6-1,3.3-1.8,5.1-2.2c8.2-1.8,15.1,3,16.6,11.4
	c0.5,2.4,1.2,4.8,1.8,7.1l1.5-0.2c0.6-12.9,2.3-25.8,1.6-38.6c-1.4-27.1-23.8-49-51-50.1c-17.7-0.7-35.5-0.4-53.2-0.3
	c-25.3,0.2-47.2,17.8-52.7,42.5C123.3,76.8,127.5,92.2,127.3,107.7L127.3,107.7z M233.9,232.5c-0.3-5.6-0.5-10.4-0.7-14.5
	c-9.7,1.6-19.1,4.3-28.5,4.3s-19-2.7-28.9-4.3v14.5c8.9,6.1,18.1,12.4,27.4,18.6c1,0.5,2.1,0.6,3.1,0.1
	C215.7,245.1,225,238.7,233.9,232.5L233.9,232.5z M313.8,328.9c-0.1-10.4-8.5-18.7-18.8-18.7c-10.4,0-18.9,8.4-19,18.8
	c0,10.4,8.4,18.9,18.8,19s18.9-8.4,19-18.8C313.8,329,313.8,329,313.8,328.9z M151.9,234.4l18.9,44.7l23.8-18.9
	c-12.8-8.7-25-17.2-37.4-25.4C156.1,234,154.1,234.5,151.9,234.4z M238.8,279l18.6-43.8l-0.7-1.2c-1.8,0.5-3.9,0.5-5.4,1.5
	c-7,4.6-13.9,9.4-20.8,14.1l-15.4,10.6c6.7,5.4,13.1,10.4,19.4,15.4C235.8,276.7,237.1,277.7,238.8,279z M204.8,359.2
	c2.9-6.8,5.5-12.5,7.8-18.4c0.8-2.1,1.1-4.3,0.9-6.5c-1.1-8.2-2.7-16.2-3.6-24.4c-0.5-4-3.2-2.7-5.3-2.8s-4.4-0.7-4.8,2.9
	c-1,8.2-2.5,16.2-3.7,24.4c-0.3,1.6-0.2,3.2,0.2,4.7C198.8,345.5,201.6,351.8,204.8,359.2z M164,224.5c0-4,0-7.3,0-10.6
	c0-4.1-3.2-7.4-7.3-7.4c0,0-0.1,0-0.1,0c-6.2-0.3-12.3,1.2-17.7,4.1c-8.4,4.6-14.4,12.5-16.4,21.9c7.8-2.7,15-5.2,22-7.8
	C150.9,222.4,157.2,220.1,164,224.5z M245.6,224c9.2-2.8,9.2-2.8,18.7,0.5l22.6,8c-2.8-14.6-17-27.2-34.9-25.7
	c-2.2,0.2-5.5,2.9-6.1,5C244.9,215.5,245.6,219.8,245.6,224L245.6,224z M220.8,280.4c-5-4-9.8-7.9-14.8-11.7c-0.8-0.4-1.7-0.4-2.4,0
	c-5,3.9-9.9,7.8-14.8,11.8c2.4,4.1,4.4,7.6,6.5,11.2c0.2,0.3,0.4,0.7,0.6,1c1.8,2.8,15.5,3.4,17.5,0.8c0.1-0.1,0.1-0.2,0.2-0.3
	L220.8,280.4z M178.7,287.2c-1.1,2.2-2.6,3.9-2.2,4.9c2.9,7.6,6.2,15,9.4,22.5l1.3-0.1c0.1-4,1.3-8.3,0.1-11.8
	C185.6,297.6,182.2,293.2,178.7,287.2L178.7,287.2z M223.6,314.9l8.9-20.8c1.5-3.5,1.5-3.5-2.3-5.6
	C226.2,296.7,217.9,303.6,223.6,314.9L223.6,314.9z M126.5,138l1.3-0.3c0-4.6-0.1-9.2,0-13.8c0-2.8-1.4-2.9-4-2.2
	C125.3,127.1,121.8,133.2,126.5,138z M285.5,121.8l-1.2-1.1c-0.9,0.8-2.5,1.5-2.5,2.3c-0.2,4.9-0.1,9.9-0.1,14.8l1.5,0.2
	C287.6,133.2,284.3,127.1,285.5,121.8L285.5,121.8z"/>
</svg>
