<?xml version="1.0" encoding="utf-8"?>
<!-- Generator: Adobe Illustrator 26.0.0, SVG Export Plug-In . SVG Version: 6.00 Build 0)  -->
<svg version="1.1" id="Layer_1" xmlns="http://www.w3.org/2000/svg" xmlns:xlink="http://www.w3.org/1999/xlink" x="0px" y="0px"
	 viewBox="0 0 156.9 375.4" style="enable-background:new 0 0 156.9 375.4;" xml:space="preserve">
<style type="text/css">
	.st0{fill:#0098FF;}
</style>
<path class="st0" d="M68.9,45.7c2.2,4.7,4.3,8.9,6.5,13.5c3.5-1.2,6.9-2.3,10.3-3.4c12.5-4.1,22.9,3.2,22.7,16.4
	c0,3.9-0.6,7.9-1.9,11.6c-1.6,4.2-5.2,6.9-9.7,8.1c-3.2,0.9-6.5,1.7-10,2.6c0.8,4.6,1.5,9.1,2.3,13.8h12.1
	c11.4,0,17.7,9.4,19.1,19.1c1.3,9-5.1,16.7-14.9,18.8c-3.6,0.8-7.3,1.5-11,2.3c-5.6,1.2-5.6,1.2-5.2,7.8c2.4,0,4.9-0.1,7.4,0
	c11,0.5,17,10.9,17.8,19.5c0.9,9-5.4,16.2-15,17.9c-5.3,1-10.5,1.9-15.8,2.7c-5.7,1-5.8,1-6.4,7.7c2.5,0,5,0,7.5,0
	c9.1,0.1,16.7,7,17.8,16c1.2,10.5-4,19-13.4,21.4c-5.2,1.3-10.5,2.2-16.3,3.5c0.2,3.5,0.5,7,0.8,11c4.2-1,8-1.9,11.8-2.9
	c9.5-2.4,16.7,0.1,20.9,7.1c4.3,7.3,2.9,17.5-3.3,23.8c-1.4,1.3-3,2.6-4.5,3.7l6.7,8.8c7.4-3.4,14.9-3.8,21.9,0.5
	c3,1.8,5.4,4.7,8,7.1c2.3,2.2,4.2,4.9,6.7,6.7c19.6,14.1,19.7,42,0,56c-3.6,2.6-7.4,5-11.4,7.7c-1.2-2.3-2.3-4.4-3.4-6.4
	c-2.9-5.5-8.4-9.1-14.6-9.7c-8.9-1-17.9-2-26.8-3c-10.9-1.3-19.8-6.1-26-15.1c-4.6-6.6-10.3-10.4-18.6-10.5c-5.2-0.1-9.4-3-12.6-7.2
	C-0.7,284.1-7.2,242.2,9.9,197c4.7-12.4,9.5-24.6,14.2-37c8.5-22.2,8.7-44.5,0.5-66.9C19.3,78.4,13.9,63.6,8.6,48.9
	C4,36.3,8,26.3,19.9,20.2c3.7-1.9,7.4-3.7,11-5.5c5.4-2.9,11.8-2.9,17.3-0.2c2,1,3.1,0.5,4.6-0.6c4-3.1,8.1-6.2,12.3-9.2
	C71.5,0,78.4-1,85.4,2.9C92.8,7,96.4,13.8,96.3,22.1c0,7.8-3.9,13.6-11,16.8C80,41.4,74.5,43.5,68.9,45.7z M41,317.1l0.2,1
	c12.9-0.3,21.7,6.2,28.6,16.3c3.3,4.8,8.5,8,14.3,8.8c11.4,1.6,22.9,2.8,35.6,4.2c-2.6-2.2-4.3-4.3-6.5-5.2
	c-5.3-2.1-10.7-3.8-16.2-5.2c-12.1-2.8-16.6-16.5-8.3-25.6c1.4-1.6,2.9-3.1,4.5-4.5c2.2-1.7,1.9-3.3,0.5-5.4
	c-3.9-5.9-9.8-10.2-16.5-12.1c-1.8-0.8-4-0.3-5.4,1.1c-4.7,4.3-9.6,8.3-14.4,12.5L41,317.1z M136.8,354.7l1.3,0.7
	c1.8-3.6,4.3-7,5.4-10.7c2.8-9.3-0.9-18.3-9.2-24.1c-3.6-2.5-6.9-4.8-9.1-9c-3.5-6.5-11.9-7.3-17.4-2.2c-3.3,3-6.5,6.2-9.5,9.5
	c-0.9,1-1.8,3.1-1.4,4.1s2.3,2,3.7,2.4c3.1,0.9,6.4,1,9.5,2C123.6,331.9,132.3,341.3,136.8,354.7L136.8,354.7z M13,251.5l47.3-4.7
	v-12.4H13V251.5z M61.4,222.1c0.6-4.2,1.2-8.3,1.8-12.3c-0.4-0.3-0.5-0.4-0.6-0.4c-13.7-1.6-27.5-3.2-41.2-4.7
	c-0.9,0.1-1.7,0.7-2,1.5c-1.7,5.2-3.2,10.4-4.8,15.9L61.4,222.1z M66,197.5c1.4-5,2.8-9.8,4.2-14.7c-13-1.4-25.6-2.8-38.2-4.1
	c-1,0-2,0.4-2.6,1.2c-1.8,4.2-3.3,8.5-5,13L66,197.5z M62.9,266.8c-0.5-2.8-0.8-5.2-1.3-8.1l-47.5,4.8c1.5,5.7,2.8,11,4.3,16.7
	L62.9,266.8z M51.2,37.5c-1.5-3.1-2.8-5.8-4.2-8.4c-2.4-4.2-6.5-5.6-10.9-3.6s-8.7,4.2-13,6.5c-3.5,1.8-5.3,5.7-4.4,9.5
	c0.9,3.4,2.3,6.8,3.6,10.4L51.2,37.5z M26.5,63.2c1.8,4.8,3.4,9.2,5.1,14l31.5-15.8c-2.2-4.5-4.3-8.8-6.5-13.3L26.5,63.2z
	 M76.5,156.4c-12.7,0-24.9,0-37.1,0.1c-0.9,0.2-1.6,0.8-2,1.6c-1.1,2.8-1.9,5.6-3,8.7l39,4.4C74.6,166.1,75.5,161.4,76.5,156.4z
	 M43,122.6l34.8-7c-0.8-5.5-1.5-10.5-2.3-15.8L51,107.9c-10.1,3.4-10.1,3.4-8.5,14C42.5,122,42.6,122.1,43,122.6z M67.8,72.5
	L35.8,88.6l3.5,10.6L72.8,88C71.1,82.7,69.5,77.9,67.8,72.5z M41,144.2h37v-16.3c-11.4,2.3-22.9,4.5-34.3,6.9
	c-0.9,0.3-1.5,1-1.8,1.9C41.5,139,41.3,141.5,41,144.2z M65.9,279.9l-0.6-1.2l-42.6,12.7l9.9,17.1L65.9,279.9z M58.3,24.8
	c1.8,3.5,3.4,6.7,5.2,10.1c5.9-2.4,11.5-4.4,16.9-6.9c4.4-2,5.2-6.6,2.3-11.5c-2.3-4-6.4-5-10.2-2.4C67.7,17.5,63.1,21.1,58.3,24.8z
	 M88.8,281.1c2.2-2.2,4.9-3.9,6.1-6.3c1.1-2.5,1.3-5.3,0.7-8c-0.2-1.1-3.2-2.7-4.7-2.5c-5.2,0.9-10.3,2.4-15.4,3.7
	c1.2,8.3,1.2,8.3,8.2,11C85.4,279.7,87,280.4,88.8,281.1L88.8,281.1z M90.5,137.1c4.4-0.9,8.2-1.7,12.1-2.5c3.1-0.6,5.5-1.9,5.8-5.3
	c0.3-3.1-3.1-8.5-5.8-8.7c-4-0.3-8.1-0.1-12.1-0.1L90.5,137.1z M72.6,232.9c5-1,9.4-1.7,13.6-2.9c3.8-1.1,4.5-4.3,4.2-7.8
	c-0.3-3.3-2-5.5-5.3-5.8c-3.5-0.3-7.1-0.1-11-0.1C73.6,221.8,73.2,227,72.6,232.9z M82.4,184.6c5.8-1,11.2-1.6,16.4-3.1
	c1.5-0.4,3.3-3.3,3.3-5c0-6.2-9.8-11.2-15.2-8c-0.4,0.3-0.7,0.7-0.8,1.2C84.9,174.5,83.8,179.2,82.4,184.6z M83.8,82.9
	c3.3-0.8,6.4-1.1,9.2-2.4c1.7-1,2.9-2.7,3.3-4.6c0.3-3,1.5-6.6-2.2-8.7c-0.9-0.5-1.9-0.6-2.8-0.5c-3.8,1.1-7.5,2.5-11.3,3.8
	L83.8,82.9z"/>
</svg>
